<svg width="36" height="36" viewBox="0 0 36 36" fill="none" xmlns="http://www.w3.org/2000/svg">
<path d="M6 15L4.58579 16.4142L3.17157 15L4.58579 13.5858L6 15ZM32 27C32 28.1046 31.1046 29 30 29C28.8954 29 28 28.1046 28 27L32 27ZM12.0858 23.9142L4.58579 16.4142L7.41421 13.5858L14.9142 21.0858L12.0858 23.9142ZM4.58579 13.5858L12.0858 6.08579L14.9142 8.91421L7.41421 16.4142L4.58579 13.5858ZM6 13L24 13L24 17L6 17L6 13ZM32 21L32 27L28 27L28 21L32 21ZM24 13C28.4183 13 32 16.5817 32 21L28 21C28 18.7909 26.2091 17 24 17L24 13Z" fill="white"/>
</svg>
