<svg width="25" height="24" viewBox="0 0 25 24" fill="none" xmlns="http://www.w3.org/2000/svg">
<path d="M5.55957 12.7596C5.55957 11.4019 5.55957 10.723 5.83403 10.1262C6.10849 9.52949 6.62394 9.08769 7.65482 8.20407L8.65482 7.34693C10.5181 5.7498 11.4498 4.95123 12.5596 4.95123C13.6693 4.95123 14.601 5.7498 16.4643 7.34693L17.4643 8.20407C18.4952 9.08769 19.0106 9.52949 19.2851 10.1262C19.5596 10.723 19.5596 11.4019 19.5596 12.7596V17C19.5596 18.8856 19.5596 19.8284 18.9738 20.4142C18.388 21 17.4452 21 15.5596 21H9.55957C7.67395 21 6.73114 21 6.14536 20.4142C5.55957 19.8284 5.55957 18.8856 5.55957 17V12.7596Z" stroke="white" stroke-width="2"/>
<path d="M15.0596 21V16C15.0596 15.4477 14.6119 15 14.0596 15H11.0596C10.5073 15 10.0596 15.4477 10.0596 16V21" stroke="white" stroke-width="2" stroke-linecap="round" stroke-linejoin="round"/>
</svg>
