<svg width="45" height="44" viewBox="0 0 45 44" fill="none" xmlns="http://www.w3.org/2000/svg">
<path d="M15.5596 22.7596C15.5596 21.4019 15.5596 20.723 15.834 20.1262C16.1085 19.5295 16.6239 19.0877 17.6548 18.2041L18.6548 17.3469C20.5181 15.7498 21.4498 14.9512 22.5596 14.9512C23.6693 14.9512 24.601 15.7498 26.4643 17.3469L27.4643 18.2041C28.4952 19.0877 29.0106 19.5295 29.2851 20.1262C29.5596 20.723 29.5596 21.4019 29.5596 22.7596V27C29.5596 28.8856 29.5596 29.8284 28.9738 30.4142C28.388 31 27.4452 31 25.5596 31H19.5596C17.674 31 16.7311 31 16.1454 30.4142C15.5596 29.8284 15.5596 28.8856 15.5596 27V22.7596Z" stroke="white" stroke-width="2"/>
<path d="M25.0596 31V26C25.0596 25.4477 24.6119 25 24.0596 25H21.0596C20.5073 25 20.0596 25.4477 20.0596 26V31" stroke="white" stroke-width="2" stroke-linecap="round" stroke-linejoin="round"/>
</svg>
