<svg width="25" height="24" viewBox="0 0 25 24" fill="none" xmlns="http://www.w3.org/2000/svg">
<path d="M17.0596 20.5H8.05957" stroke="white" stroke-width="2" stroke-linecap="round"/>
<path d="M13.5596 18.5C13.5596 19.0523 13.1119 19.5 12.5596 19.5C12.0073 19.5 11.5596 19.0523 11.5596 18.5H13.5596ZM11.5596 18.5V16H13.5596V18.5H11.5596Z" fill="white"/>
<path d="M11.0596 9.5H14.0596" stroke="white" stroke-width="2" stroke-linecap="round"/>
<path d="M6.05957 14.5C6.05957 14.5 4.05957 13 4.05957 10.5C4.05957 9.73465 4.05957 9.06302 4.05957 8.49945C4.05957 7.39488 4.955 6.5 6.05957 6.5V6.5C7.16414 6.5 8.05957 7.39543 8.05957 8.5V9.5" stroke="white" stroke-width="2" stroke-linecap="round"/>
<path d="M19.0596 14.5C19.0596 14.5 21.0596 13 21.0596 10.5C21.0596 9.73465 21.0596 9.06302 21.0596 8.49945C21.0596 7.39488 20.1641 6.5 19.0596 6.5V6.5C17.955 6.5 17.0596 7.39543 17.0596 8.5V9.5" stroke="white" stroke-width="2" stroke-linecap="round"/>
<path d="M17.0596 11.3593V7.5C17.0596 6.39543 16.1641 5.5 15.0596 5.5H10.0596C8.955 5.5 8.05957 6.39543 8.05957 7.5V11.3593C8.05957 12.6967 8.72798 13.9456 9.84077 14.6875L12.0049 16.1302C12.3408 16.3541 12.7784 16.3541 13.1143 16.1302L15.2784 14.6875C16.3912 13.9456 17.0596 12.6967 17.0596 11.3593Z" stroke="white" stroke-width="2"/>
</svg>
